<svg aria-hidden="true" style="width:0;height:0;position:absolute;overflow:hidden" xmlns="http://www.w3.org/2000/svg"><defs><symbol id="icon-right" viewBox="0 0 32 32"><path d="M8.105 30a1.995 1.995 0 0 1 .587-1.413l10.229-10.229c.603-.603.977-1.437.977-2.357s-.373-1.754-.977-2.357L8.705 3.421A2 2 0 0 1 11.534.594l-.001-.001 10.216 10.215c1.325 1.328 2.145 3.161 2.145 5.186s-.82 3.858-2.145 5.186L11.52 31.409a2 2 0 0 1-3.415-1.408z"/></symbol><symbol id="icon-arrow" viewBox="0 0 32 32"><path d="m22.748 12.7-4.781-4.781a2 2 0 0 0-2.828 2.83l3.252 3.252H6.667a2 2 0 1 0 0 4h11.724l-3.252 3.252a2 2 0 0 0 2.828 2.83l4.781-4.781c.843-.845 1.364-2.012 1.364-3.3s-.521-2.455-1.364-3.3z"/></symbol><symbol id="icon-cross" viewBox="0 0 32 32"><path d="M18.828 16 31.414 3.415A2 2 0 0 0 28.585.586L16 13.172 3.415.586A2 2 0 0 0 .586 3.415L13.172 16 .586 28.585a2 2 0 0 0 2.829 2.829L16 18.828l12.585 12.586a2 2 0 0 0 2.829-2.829L18.828 16z"/></symbol><symbol id="icon-facebook" viewBox="0 0 32 32"><path d="M18.448 31.755V17.404h4.825l.742-5.619h-5.567V8.207c0-1.622.453-2.728 2.78-2.728h2.947V.469a37.573 37.573 0 0 0-4.154-.223h-.175.009c-4.275 0-7.204 2.598-7.204 7.404v4.134H7.826v5.619h4.825v14.352h5.797z"/></symbol><symbol id="icon-github" viewBox="0 0 32 32"><path d="M16 .395c-8.836 0-16 7.163-16 16 0 7.069 4.584 13.067 10.941 15.183.8.148 1.093-.347 1.093-.769 0-.381-.015-1.641-.021-2.979-4.451.968-5.391-1.888-5.391-1.888-.728-1.849-1.776-2.341-1.776-2.341-1.452-.993.109-.972.109-.972 1.607.113 2.452 1.649 2.452 1.649 1.427 2.445 3.743 1.739 4.656 1.329.144-1.035.559-1.74 1.016-2.14-3.553-.404-7.289-1.776-7.289-7.907 0-1.747.625-3.175 1.649-4.295-.167-.404-.715-2.031.155-4.235 0 0 1.344-.429 4.401 1.64 1.2-.34 2.579-.536 4.003-.539h.001c1.36.007 2.729.184 4.008.539 3.053-2.071 4.396-1.64 4.396-1.64.871 2.204.323 3.831.157 4.235 1.025 1.12 1.647 2.548 1.647 4.295 0 6.145-3.743 7.499-7.305 7.895.573.496 1.085 1.471 1.085 2.963 0 2.141-.019 3.864-.019 4.391 0 .425.288.925 1.099.768C27.422 29.458 32 23.464 32 16.397 31.999 7.56 24.835.396 15.999.396z"/><path d="M6.06 23.368c-.035.08-.16.104-.275.049-.116-.052-.181-.161-.144-.24.035-.081.16-.104.276-.049.116.051.183.16.143.24zm.648.723c-.076.071-.225.037-.327-.073-.105-.112-.124-.261-.047-.332.079-.071.223-.037.328.075.105.111.125.259.045.331zm.631.921c-.099.068-.259.004-.357-.137-.099-.143-.099-.313.003-.381.099-.068.257-.007.357.135.097.144.097.315-.003.384zm.864.891c-.088.097-.275.071-.411-.061-.14-.129-.179-.312-.091-.409.089-.097.277-.069.415.061.139.129.18.313.087.409zm1.193.516c-.039.125-.219.183-.4.129-.181-.055-.3-.201-.263-.328s.219-.185.401-.128c.18.053.299.2.261.327zm1.309.096c.004.132-.149.241-.34.244-.191.004-.347-.103-.348-.232 0-.133.151-.241.341-.245s.347.103.347.233zm1.219-.207c.023.128-.109.261-.299.296-.185.035-.357-.045-.381-.173-.023-.132.112-.264.297-.299.188-.033.359.044.383.176z"/></symbol><symbol id="icon-home" viewBox="0 0 32 32"><path d="M16 18.667a4 4 0 0 0-4 4v9.368h8v-9.368a4 4 0 0 0-4-4z"/><path d="M17.784 1.111C17.314.686 16.687.426 16 .426s-1.314.26-1.786.687l.002-.002L0 13.906v13.867a4.267 4.267 0 0 0 4.267 4.267h5.067v-9.372a6.667 6.667 0 0 1 13.334 0v9.368h5.067a4.267 4.267 0 0 0 4.267-4.267V13.902z"/></symbol><symbol id="icon-burger" viewBox="0 0 32 32"><path d="M30 14H2a2 2 0 1 0 0 4h28a2 2 0 1 0 0-4zM2 8.667h28a2 2 0 1 0 0-4H2a2 2 0 1 0 0 4zm28 14.666H2a2 2 0 1 0 0 4h28a2 2 0 1 0 0-4z"/></symbol><symbol id="icon-telegram" viewBox="0 0 32 32"><path d="M29.627 2.961 1.716 13.723c-1.905.764-1.894 1.827-.347 2.3l7.161 2.235 2.463 8.106c.324.894.164 1.248 1.103 1.248.724 0 1.044-.331 1.449-.724l3.48-3.384 7.24 5.35c1.332.735 2.294.354 2.626-1.237l4.753-22.399c.487-1.951-.744-2.837-2.018-2.258z"/><path d="m12.129 25.458-2.362-7.774L27.949 6.897 14.512 20.126l-2.384 5.331z"/></symbol></defs></svg>