<svg aria-hidden="true" style="width:0;height:0;position:absolute;overflow:hidden" xmlns="http://www.w3.org/2000/svg"><defs><symbol id="icon-right" viewBox="0 0 32 32"><path d="M8.105 30a1.995 1.995 0 0 1 .587-1.413l10.229-10.229c.603-.603.977-1.437.977-2.357s-.373-1.754-.977-2.357L8.705 3.421A2 2 0 0 1 11.534.594l-.001-.001 10.216 10.215c1.325 1.328 2.145 3.161 2.145 5.186s-.82 3.858-2.145 5.186L11.52 31.409a2 2 0 0 1-3.415-1.408z"/></symbol><symbol id="icon-arrow" viewBox="0 0 32 32"><path d="m22.748 12.7-4.781-4.781a2 2 0 0 0-2.828 2.83l3.252 3.252H6.667a2 2 0 1 0 0 4h11.724l-3.252 3.252a2 2 0 0 0 2.828 2.83l4.781-4.781c.843-.845 1.364-2.012 1.364-3.3s-.521-2.455-1.364-3.3z"/></symbol><symbol id="icon-cross" viewBox="0 0 32 32"><path d="M18.828 16 31.414 3.415A2 2 0 0 0 28.585.586L16 13.172 3.415.586A2 2 0 0 0 .586 3.415L13.172 16 .586 28.585a2 2 0 0 0 2.829 2.829L16 18.828l12.585 12.586a2 2 0 0 0 2.829-2.829L18.828 16z"/></symbol><symbol id="icon-facebook" viewBox="0 0 32 32"><path d="M18.448 31.755V17.404h4.825l.742-5.619h-5.567V8.207c0-1.622.453-2.728 2.78-2.728h2.947V.469a37.573 37.573 0 0 0-4.154-.223h-.175.009c-4.275 0-7.204 2.598-7.204 7.404v4.134H7.826v5.619h4.825v14.352h5.797z"/></symbol><symbol id="icon-github" viewBox="0 0 32 32"><path d="M16 .395c-8.836 0-16 7.163-16 16 0 7.069 4.584 13.067 10.941 15.183.8.148 1.093-.347 1.093-.769 0-.381-.015-1.641-.021-2.979-4.451.968-5.391-1.888-5.391-1.888-.728-1.849-1.776-2.341-1.776-2.341-1.452-.993.109-.972.109-.972 1.607.113 2.452 1.649 2.452 1.649 1.427 2.445 3.743 1.739 4.656 1.329.144-1.035.559-1.74 1.016-2.14-3.553-.404-7.289-1.776-7.289-7.907 0-1.747.625-3.175 1.649-4.295-.167-.404-.715-2.031.155-4.235 0 0 1.344-.429 4.401 1.64 1.2-.34 2.579-.536 4.003-.539h.001c1.36.007 2.729.184 4.008.539 3.053-2.071 4.396-1.64 4.396-1.64.871 2.204.323 3.831.157 4.235 1.025 1.12 1.647 2.548 1.647 4.295 0 6.145-3.743 7.499-7.305 7.895.573.496 1.085 1.471 1.085 2.963 0 2.141-.019 3.864-.019 4.391 0 .425.288.925 1.099.768C27.422 29.458 32 23.464 32 16.397 31.999 7.56 24.835.396 15.999.396z"/><path d="M6.06 23.368c-.035.08-.16.104-.275.049-.116-.052-.181-.161-.144-.24.035-.081.16-.104.276-.049.116.051.183.16.143.24zm.648.723c-.076.071-.225.037-.327-.073-.105-.112-.124-.261-.047-.332.079-.071.223-.037.328.075.105.111.125.259.045.331zm.631.921c-.099.068-.259.004-.357-.137-.099-.143-.099-.313.003-.381.099-.068.257-.007.357.135.097.144.097.315-.003.384zm.864.891c-.088.097-.275.071-.411-.061-.14-.129-.179-.312-.091-.409.089-.097.277-.069.415.061.139.129.18.313.087.409zm1.193.516c-.039.125-.219.183-.4.129-.181-.055-.3-.201-.263-.328s.219-.185.401-.128c.18.053.299.2.261.327zm1.309.096c.004.132-.149.241-.34.244-.191.004-.347-.103-.348-.232 0-.133.151-.241.341-.245s.347.103.347.233zm1.219-.207c.023.128-.109.261-.299.296-.185.035-.357-.045-.381-.173-.023-.132.112-.264.297-.299.188-.033.359.044.383.176z"/></symbol><symbol id="icon-home" viewBox="0 0 32 32"><path d="M16 18.667a4 4 0 0 0-4 4v9.368h8v-9.368a4 4 0 0 0-4-4z"/><path d="M17.784 1.111C17.314.686 16.687.426 16 .426s-1.314.26-1.786.687l.002-.002L0 13.906v13.867a4.267 4.267 0 0 0 4.267 4.267h5.067v-9.372a6.667 6.667 0 0 1 13.334 0v9.368h5.067a4.267 4.267 0 0 0 4.267-4.267V13.902z"/></symbol><symbol id="icon-burger" viewBox="0 0 32 32"><path d="M30 14H2a2 2 0 1 0 0 4h28a2 2 0 1 0 0-4zM2 8.667h28a2 2 0 1 0 0-4H2a2 2 0 1 0 0 4zm28 14.666H2a2 2 0 1 0 0 4h28a2 2 0 1 0 0-4z"/></symbol><symbol id="icon-telegram" viewBox="0 0 28 32"><path d="m27.919 6.162-4.225 19.925c-.319 1.406-1.15 1.756-2.331 1.094l-6.438-4.744-3.106 2.988c-.344.344-.631.631-1.294.631l.463-6.556L22.919 8.719c.519-.463-.113-.719-.806-.256L7.363 17.75l-6.35-1.988c-1.381-.431-1.406-1.381.288-2.044l24.837-9.569c1.15-.431 2.156.256 1.781 2.013z"/></symbol><symbol id="icon-logo" viewBox="0 0 127 32"><path fill="#fff" style="fill:var(--color1,#fff)" d="M31.36 16.32C31.36 24.98 24.483 32 16 32S.64 24.98.64 16.32 7.517.64 16 .64s15.36 7.02 15.36 15.68z"/><path fill="#d41443" style="fill:var(--color2,#d41443)" d="M11.849.561C4.444 2.804 0 8.635 0 16.003c0 6.022 3.091 11.277 8.179 13.904 2.64 1.345 3.027.384.579-1.474-1.738-1.409-2.061-2.05-2.061-4.421 0-1.666-.386-3.011-.966-3.524-1.158-.961-1.288-3.46-.128-4.357.45-.384.901-1.666.965-2.819.323-4.228 4.895-8.201 9.467-8.201s9.144 3.972 9.466 8.201c.064 1.153.515 2.435.966 2.819 1.158.897 1.03 3.396-.129 4.357-.579.513-.966 1.858-.966 3.524 0 2.371-.321 3.012-2.06 4.421-2.705 2.115-1.932 2.883 1.094 1.025 4.251-2.627 7.406-8.33 7.406-13.391 0-10.124-10.561-18.325-19.964-15.506z"/><path fill="#d41443" style="fill:var(--color2,#d41443)" d="M12.687 7.994c-1.16.513-2.125 1.154-2.125 1.538 0 .705 3.478 1.987 5.474 1.987s5.474-1.281 5.474-1.987c0-.768-3.993-2.499-5.603-2.499-.644.064-2.125.448-3.22.961zm33.164 3.332c-.966.256-1.158 1.089-1.158 5.702v5.382h4.572l-.193-5.574c-.193-5.83-.451-6.28-3.22-5.51zm7.535.32c-2.125 1.154-2.898 2.563-2.898 5.318 0 3.78 2.061 5.574 5.86 5.318 2.576-.192 2.833-.385 3.027-1.987s.064-1.73-1.932-1.602c-2.061.192-2.125.064-2.125-2.051s.129-2.243 1.997-2.05c1.545.128 2.125-.128 2.382-1.089.129-.641 0-1.538-.387-1.923-.901-.897-4.25-.897-5.924.064zm7.664.064c-.194.513-.258 3.012-.129 5.638l.193 4.742H65.3c3.864 0 4.186-.128 4.379-1.474.193-1.217-.064-1.409-2.06-1.409-1.288 0-2.319-.32-2.319-.641 0-.385.902-.641 1.932-.641 1.481 0 1.932-.256 1.932-1.281s-.451-1.281-1.932-1.281c-1.03 0-1.932-.32-1.932-.641 0-.385.837-.641 1.868-.641 1.804 0 3.027-1.409 2.254-2.627-.58-.961-7.985-.705-8.371.256zm12.943-.192c-2.125.833-2.962 2.307-3.027 4.998-.065 4.613 1.803 6.215 6.633 5.766 1.868-.128 2.189-.448 2.189-1.794 0-1.409-.257-1.602-2.061-1.409-1.546.128-2.125-.064-2.447-1.089-.58-1.987.644-3.588 2.705-3.588 1.224 0 1.868-.384 1.996-1.217.451-2.051-2.833-3.011-5.989-1.666zm7.921-.256c-.323.256-.515 2.883-.515 5.83v5.382l2.06-.192c1.61-.128 2.19-.577 2.512-1.795l.386-1.602.515 1.73c.387 1.474.837 1.795 2.512 1.795 2.769 0 3.091-.449 1.932-2.691-.708-1.41-.837-2.115-.322-2.627.837-.833.902-3.652.129-4.87-.644-1.025-8.371-1.858-9.208-.961zm5.28 3.46c0 .705-.257 1.281-.644 1.281-.322 0-.644-.576-.644-1.281s.322-1.282.644-1.282c.387 0 .644.577.644 1.282zm6.247-3.396c-.258.192-.451 2.819-.451 5.766v5.318h4.186c4.057 0 4.186-.064 4.186-1.602 0-1.346-.322-1.602-1.932-1.602-1.03 0-1.932-.32-1.932-.641 0-.385.708-.641 1.61-.641 1.159 0 1.61-.321 1.61-1.282s-.451-1.281-1.61-1.281c-.902 0-1.61-.32-1.61-.641 0-.384.902-.641 1.932-.641 1.61 0 1.932-.256 1.932-1.602 0-1.538-.193-1.602-3.735-1.602-2.061 0-3.992.192-4.186.448zm13.009-.064c-1.16.32-4.122 8.842-3.542 10.252.515 1.281 3.413 1.153 4.186-.192.579-1.089.644-1.089 1.803 0 1.482 1.281 4.701 1.474 4.701.256 0-.384-.644-2.947-1.482-5.574-1.288-4.228-1.674-4.805-3.027-4.933-.902 0-2.061.064-2.64.192zm1.803 5.83c-.193.641-.322.256-.322-.769 0-1.089.129-1.538.322-1.153.129.448.129 1.345 0 1.922zm7.47-5.766c-.58.192-.837 1.986-.837 5.702v5.382h1.868c1.61 0 1.932-.321 2.189-1.795.257-1.666.257-1.666.772-.32.258.833.902 1.474 1.352 1.474.515 0 1.224-.641 1.546-1.474.515-1.346.58-1.346.58.384.065 1.602.257 1.795 2.061 1.602l1.996-.192.065-5.318c.129-4.933.064-5.318-1.288-5.638-2.061-.512-3.799.705-4.379 3.076l-.451 2.115-.708-2.243c-.902-3.012-2.254-3.78-4.765-2.755zm-106.707.641c-.193.256-.387 1.089-.387 1.922 0 1.474.064 1.474 7.406 1.474 7.341 0 7.405 0 7.405-1.474 0-2.179-.579-2.435-2.64-1.409-2.319 1.217-7.213 1.217-9.531 0-1.03-.513-1.997-.705-2.254-.513zm-1.868 5.702c-1.03 1.089.708 1.538 5.731 1.538h5.409v2.243c0 1.217.322 2.243.644 2.243.386 0 .644-.961.644-2.179 0-2.115.129-2.243 2.576-2.435 1.416-.128 2.576-.512 2.576-.832 0-.705-16.872-1.282-17.581-.577z"/><path fill="#d41443" style="fill:var(--color2,#d41443)" d="M8.629 23.308c0 3.524 1.224 4.229 7.406 4.229s7.405-.705 7.405-4.229c0-1.538-.322-2.179-.966-2.179-.579 0-.965.577-.965 1.538 0 3.588-4.895 3.908-5.603.384-.322-1.858-.515-1.922-3.799-1.922H8.629v2.179zm3.993 7.24c.387 2.051 6.955 1.859 6.955-.128 0-.705-.837-.961-3.606-.961-3.027 0-3.542.192-3.348 1.089z"/></symbol><symbol id="icon-ellipse" viewBox="0 0 32 32"><path fill="#c7133e" style="fill:var(--color1,#c7133e)" d="M32 16c0 8.837-7.163 16-16 16S0 24.837 0 16 7.163 0 16 0s16 7.163 16 16z"/></symbol><symbol id="icon-home-1" viewBox="0 0 35 32"><path fill="#d31342" style="fill:var(--color1,#d31342)" d="M32.64 15.4a1.539 1.539 0 0 0-.128-2.223l-.002-.002L17.737.426a1.849 1.849 0 0 0-1.184-.425c-.466 0-.892.171-1.218.454l.002-.002L.516 13.856a1.53 1.53 0 0 0-.072 2.222l.373.381c.613.635 1.611.709 2.224.168l1.107-.979v14.328a1.6 1.6 0 0 0 1.6 1.589H11.55a1.6 1.6 0 0 0 1.6-1.589V19.951h7.371v10.024c-.013.88.624 1.589 1.515 1.589h6.134a1.6 1.6 0 0 0 1.6-1.589V15.849l.685.592c.376.325 1.168.064 1.765-.587l.421-.453z"/></symbol></defs></svg>