<svg aria-hidden="true" style="width:0;height:0;position:absolute;overflow:hidden" xmlns="http://www.w3.org/2000/svg"><defs><symbol id="icon-ukraine-ice-cream" viewBox="0 0 32 32"><path fill="#31c0d8" style="fill:var(--color1,#31c0d8)" d="M10.775 9.469A1.956 1.956 0 0 1 8.816 7.51v-.653c0-1.084.875-1.959 1.959-1.959h1.959c-3.918 0-2.612-4.245-2.612-4.245.881.653 2.612.98 2.612.98h6.531a1.634 1.634 0 0 1 0 3.266h1.959c1.084 0 1.959.875 1.959 1.959v.653a1.956 1.956 0 0 1-1.959 1.959h1.633c1.084 0 1.959.875 1.959 1.959v.653a1.956 1.956 0 0 1-1.959 1.959H9.143a1.956 1.956 0 0 1-1.959-1.959v-.653c0-1.084.875-1.959 1.959-1.959h1.633z"/><path fill="#ffd248" style="fill:var(--color2,#ffd248)" d="M11.102 19.265h-.653a1.31 1.31 0 0 1-1.306-1.306v-3.918h13.714v3.918a1.31 1.31 0 0 1-1.306 1.306h-.653l-1.959 12.082h-5.878l-1.959-12.082z"/><path fill="#231f20" style="fill:var(--color3,#231f20)" d="M23.446 8.883c.245-.389.391-.863.391-1.37v-.656a2.615 2.615 0 0 0-2.507-2.61c.14-.286.222-.623.222-.979v-.003A2.289 2.289 0 0 0 19.266.979h-6.467c-.487-.099-1.691-.41-2.287-.851A.654.654 0 0 0 9.5.456l-.001.005c-.007.024-.181.593-.227 1.33-.064 1.029.15 1.909.621 2.546a2.1 2.1 0 0 0 .039.049 2.616 2.616 0 0 0-1.768 2.471v.656c0 .508.146.982.398 1.382l-.006-.011a2.617 2.617 0 0 0-2.024 2.545v.653c0 1.215.834 2.239 1.959 2.53v3.348c0 1.08.879 1.959 1.959 1.959h.097l1.87 11.533a.654.654 0 0 0 .645.549h5.878a.654.654 0 0 0 .644-.545l.001-.004 1.87-11.533h.097c1.08 0 1.959-.879 1.959-1.959v-3.348a2.618 2.618 0 0 0 1.959-2.53v-.653a2.616 2.616 0 0 0-2.023-2.545zm-1.895 9.729h-.653a.654.654 0 0 0-.644.545l-.001.004-1.87 11.533h-4.766L11.87 19.918h5.437v-1.306H10.45a.654.654 0 0 1-.653-.653v-3.265h12.408v3.265c0 .36-.293.653-.653.653zm2.612-6.53c0 .72-.586 1.306-1.306 1.306H9.143c-.72 0-1.306-.586-1.306-1.306v-.653c0-.72.586-1.306 1.306-1.306h8.163V8.817h-6.531c-.72 0-1.306-.586-1.306-1.306v-.653c0-.72.586-1.306 1.306-1.306h5.551V4.246h-3.592c-.852 0-1.454-.229-1.79-.682-.381-.514-.415-1.287-.352-1.903.895.394 1.878.588 2.021.615.04.008.08.011.121.011h6.531a.98.98 0 0 1 0 1.96.653.653 0 1 0 0 1.306h1.959c.72 0 1.306.586 1.306 1.306v.653c0 .72-.586 1.306-1.306 1.306a.653.653 0 1 0 0 1.306h1.633c.72 0 1.306.586 1.306 1.306v.653z"/><path fill="#231f20" style="fill:var(--color3,#231f20)" d="M11.755 16h1.959v1.306h-1.959zm3.265 0h1.959v1.306H15.02zm3.266 0h1.959v1.306h-1.959z"/></symbol></defs></svg>