<svg version="1.1" id="Icons" xmlns="http://www.w3.org/2000/svg" x="0" y="0" viewBox="0 0 48 48" style="enable-background:new 0 0 48 48" xml:space="preserve">
  <style>
    .st3{fill:none;stroke:#45413c;stroke-linecap:round;stroke-linejoin:round;stroke-miterlimit:10}.st19{fill:#fff48c}.st22{fill:#ff87af}.st37{fill:#fffef2}.st38{fill:#ff6196}
  </style>
  <g id="XMLID_13714_">
    <ellipse id="XMLID_13743_" cx="24" cy="45.5" rx="14.5" ry="1.5" style="opacity:.15;fill:#45413c"/>
    <g id="XMLID_13720_">
      <g id="XMLID_13730_">
        <g id="XMLID_13739_">
          <path id="XMLID_13742_" class="st37" d="M35.9 18.7c.5-.7.7-1.6.6-2.6-.2-2.2-2.1-3.8-4.3-3.8h-1c.9-.7 1.5-1.8 1.5-3 0-2.1-1.7-3.8-3.8-3.8-2 0-8.1.7-6.9-3.4.2-.6-.3-1.1-.9-1-2.8.7-5.9 3.6-5.9 8.2 0 1.2.6 2.3 1.5 3h-1c-2.2 0-4.1 1.6-4.3 3.8-.1.9.2 1.8.6 2.6-3 .9-5.2 3.9-5.1 7.3.2 3.9 3.6 6.8 7.5 6.8h19.2c3.9 0 7.3-3 7.5-6.8.1-3.4-2.1-6.4-5.2-7.3z"/>
          <path id="XMLID_13741_" d="M11.1 28.1c-.2-3.4 2.1-6.4 5.2-7.3-.5-.7-.7-1.6-.6-2.6.2-2.2 2.1-3.8 4.3-3.8h1c-.9-.7-1.5-1.8-1.5-3 0-3.1 1.4-5.4 3.1-6.8-.6-.4-.9-1.2-.6-2.5.2-.6-.3-1.1-.9-1-2.8.7-5.9 3.6-5.9 8.2 0 1.2.6 2.3 1.5 3h-1c-2.2 0-4.1 1.6-4.3 3.8-.1.9.2 1.8.6 2.6-3 .9-5.2 3.9-5.1 7.3.2 3.5 2.9 6.2 6.3 6.7-1.2-1.1-2-2.8-2.1-4.6z" style="fill:#fff"/>
          <path id="XMLID_13740_" class="st3" d="M35.9 18.7c.5-.7.7-1.6.6-2.6-.2-2.2-2.1-3.8-4.3-3.8h-1c.9-.7 1.5-1.8 1.5-3 0-2.1-1.7-3.8-3.8-3.8-2 0-8.1.7-6.9-3.4.2-.6-.3-1.1-.9-1-2.8.7-5.9 3.6-5.9 8.2 0 1.2.6 2.3 1.5 3h-1c-2.2 0-4.1 1.6-4.3 3.8-.1.9.2 1.8.6 2.6-3 .9-5.2 3.9-5.1 7.3.2 3.9 3.6 6.8 7.5 6.8h19.2c3.9 0 7.3-3 7.5-6.8.1-3.4-2.1-6.4-5.2-7.3z"/>
        </g>
        <g id="XMLID_13731_">
          <ellipse id="XMLID_13738_" class="st19" cx="17.5" cy="21.1" rx="1.1" ry=".8"/>
          <g id="XMLID_13735_">
            <path id="XMLID_13737_" d="M26.9 23c.5 0 .9.5.7.9-.4 1.6-1.9 2.8-3.7 2.8s-3.3-1.2-3.7-2.8c-.1-.5.2-.9.7-.9h6z" style="fill:#ffb0ca;stroke:#45413c;stroke-linecap:round;stroke-linejoin:round;stroke-miterlimit:10"/>
            <path id="XMLID_13736_" d="M24 26.8c1.2 0 2.3-.6 3-1.5-.8-.5-1.8-.8-3-.8s-2.2.3-3 .8c.7.9 1.8 1.5 3 1.5z" style="fill:#ff87af;stroke:#45413c;stroke-linecap:round;stroke-linejoin:round;stroke-miterlimit:10"/>
          </g>
          <path id="XMLID_13734_" class="st3" d="M17.2 19.6c0-.6.5-1.1 1.1-1.1s1.1.5 1.1 1.1"/>
          <ellipse id="XMLID_13733_" class="st19" cx="30.5" cy="21.1" rx="1.1" ry=".8"/>
          <path id="XMLID_13732_" class="st3" d="M30.8 19.6c0-.6-.5-1.1-1.1-1.1s-1.1.5-1.1 1.1"/>
        </g>
      </g>
      <g id="XMLID_13721_">
        <g id="XMLID_13726_">
          <path id="XMLID_13729_" class="st38" d="M39.6 34.4H8.4c-.4 0-.8-.3-.8-.8v-3c0-.4.3-.8.8-.8h31.1c.4 0 .8.3.8.8v3c0 .4-.3.8-.7.8z"/>
          <path id="XMLID_13728_" class="st22" d="M40.3 31.7H7.7v-1.1c0-.4.3-.8.8-.8h31.1c.4 0 .8.3.8.8v1.1z"/>
          <path id="XMLID_13727_" class="st3" d="M39.6 34.4H8.4c-.4 0-.8-.3-.8-.8v-3c0-.4.3-.8.8-.8h31.1c.4 0 .8.3.8.8v3c0 .4-.3.8-.7.8z"/>
        </g>
        <g id="XMLID_13722_">
          <path id="XMLID_13725_" class="st22" d="M35.4 45H12.6c-1.5 0-2.8-1.1-3-2.6l-1.1-8h31.1l-1.1 8c-.3 1.5-1.6 2.6-3.1 2.6z"/>
          <path id="XMLID_13724_" class="st38" d="m39.3 36.3.3-1.9H8.4l.3 1.9z"/>
          <path id="XMLID_13723_" class="st3" d="M35.4 45H12.6c-1.5 0-2.8-1.1-3-2.6l-1.1-8h31.1l-1.1 8c-.3 1.5-1.6 2.6-3.1 2.6z"/>
        </g>
      </g>
    </g>
    <path id="XMLID_13719_" class="st3" d="M38 25.3v1.1c0 .6-.5 1.1-1.1 1.1s-1.1-.5-1.1-1.1v-2.7"/>
    <path id="XMLID_13718_" class="st3" d="M28.2 10.1V12c0 .6-.5 1.1-1.1 1.1-.6 0-1.1-.5-1.1-1.1v-.8"/>
    <g id="XMLID_13715_">
      <path id="XMLID_13717_" class="st37" d="M13 29.1V31c0 .6-.5 1.1-1.1 1.1s-1.1-.5-1.1-1.1v-1.9H13z"/>
      <path id="XMLID_13716_" class="st3" d="M13 29.8V31c0 .6-.5 1.1-1.1 1.1s-1.1-.5-1.1-1.1v-1.9"/>
    </g>
  </g>
</svg>
