<svg aria-hidden="true" style="position: absolute; width: 0; height: 0; overflow: hidden;" version="1.1" xmlns="http://www.w3.org/2000/svg" xmlns:xlink="http://www.w3.org/1999/xlink">
<defs>
<symbol id="icon-right" viewBox="0 0 32 32">
<path d="M8.105 30c0.001-0.552 0.225-1.052 0.587-1.413l10.229-10.229c0.603-0.603 0.977-1.437 0.977-2.357s-0.373-1.754-0.977-2.357l-10.216-10.223c-0.347-0.359-0.561-0.849-0.561-1.389 0-1.105 0.895-2 2-2 0.54 0 1.030 0.214 1.39 0.562l-0.001-0.001 10.216 10.215c1.325 1.328 2.145 3.161 2.145 5.186s-0.82 3.858-2.145 5.186l-10.229 10.229c-0.362 0.362-0.862 0.586-1.415 0.586-1.103 0-1.997-0.892-2-1.994v-0z"></path>
</symbol>
<symbol id="icon-arrow" viewBox="0 0 32 32">
<path d="M22.748 12.7l-4.781-4.781c-0.362-0.362-0.862-0.585-1.414-0.585-1.105 0-2 0.896-2 2 0 0.553 0.224 1.053 0.586 1.415l3.252 3.252h-11.724c-1.105 0-2 0.895-2 2s0.895 2 2 2v0h11.724l-3.252 3.252c-0.362 0.362-0.586 0.862-0.586 1.415 0 1.105 0.896 2 2 2 0.552 0 1.052-0.224 1.414-0.585l4.781-4.781c0.843-0.845 1.364-2.012 1.364-3.3s-0.521-2.455-1.364-3.3l0 0z"></path>
</symbol>
<symbol id="icon-cross" viewBox="0 0 32 32">
<path d="M18.828 16l12.586-12.585c0.781-0.781 0.781-2.048 0-2.829s-2.048-0.781-2.829 0l-12.585 12.586-12.585-12.586c-0.781-0.781-2.048-0.781-2.829 0s-0.781 2.048 0 2.829l12.586 12.585-12.586 12.585c-0.781 0.781-0.781 2.048 0 2.829s2.048 0.781 2.829 0l12.585-12.586 12.585 12.586c0.781 0.781 2.048 0.781 2.829 0s0.781-2.048 0-2.829l-12.586-12.585z"></path>
</symbol>
<symbol id="icon-facebook" viewBox="0 0 32 32">
<path d="M18.448 31.755v-14.351h4.825l0.742-5.619h-5.567v-3.578c0-1.622 0.453-2.728 2.78-2.728h2.947v-5.010c-1.246-0.142-2.691-0.223-4.154-0.223-0.058 0-0.117 0-0.175 0l0.009-0c-4.275 0-7.204 2.598-7.204 7.404v4.134h-4.825v5.619h4.825v14.352h5.797z"></path>
</symbol>
<symbol id="icon-github" viewBox="0 0 32 32">
<path d="M16 0.395c-8.836 0-16 7.163-16 16 0 7.069 4.584 13.067 10.941 15.183 0.8 0.148 1.093-0.347 1.093-0.769 0-0.381-0.015-1.641-0.021-2.979-4.451 0.968-5.391-1.888-5.391-1.888-0.728-1.849-1.776-2.341-1.776-2.341-1.452-0.993 0.109-0.972 0.109-0.972 1.607 0.113 2.452 1.649 2.452 1.649 1.427 2.445 3.743 1.739 4.656 1.329 0.144-1.035 0.559-1.74 1.016-2.14-3.553-0.404-7.289-1.776-7.289-7.907 0-1.747 0.625-3.175 1.649-4.295-0.167-0.404-0.715-2.031 0.155-4.235 0 0 1.344-0.429 4.401 1.64 1.2-0.34 2.579-0.536 4.003-0.539h0.001c1.36 0.007 2.729 0.184 4.008 0.539 3.053-2.071 4.396-1.64 4.396-1.64 0.871 2.204 0.323 3.831 0.157 4.235 1.025 1.12 1.647 2.548 1.647 4.295 0 6.145-3.743 7.499-7.305 7.895 0.573 0.496 1.085 1.471 1.085 2.963 0 2.141-0.019 3.864-0.019 4.391 0 0.425 0.288 0.925 1.099 0.768 6.355-2.119 10.933-8.113 10.933-15.18-0.001-8.837-7.165-16.001-16.001-16.001z"></path>
<path d="M6.060 23.368c-0.035 0.080-0.16 0.104-0.275 0.049-0.116-0.052-0.181-0.161-0.144-0.24 0.035-0.081 0.16-0.104 0.276-0.049 0.116 0.051 0.183 0.16 0.143 0.24zM6.708 24.091c-0.076 0.071-0.225 0.037-0.327-0.073-0.105-0.112-0.124-0.261-0.047-0.332 0.079-0.071 0.223-0.037 0.328 0.075 0.105 0.111 0.125 0.259 0.045 0.331zM7.339 25.012c-0.099 0.068-0.259 0.004-0.357-0.137-0.099-0.143-0.099-0.313 0.003-0.381 0.099-0.068 0.257-0.007 0.357 0.135 0.097 0.144 0.097 0.315-0.003 0.384zM8.203 25.903c-0.088 0.097-0.275 0.071-0.411-0.061-0.14-0.129-0.179-0.312-0.091-0.409 0.089-0.097 0.277-0.069 0.415 0.061 0.139 0.129 0.18 0.313 0.087 0.409zM9.396 26.419c-0.039 0.125-0.219 0.183-0.4 0.129-0.181-0.055-0.3-0.201-0.263-0.328s0.219-0.185 0.401-0.128c0.18 0.053 0.299 0.2 0.261 0.327zM10.705 26.515c0.004 0.132-0.149 0.241-0.34 0.244-0.191 0.004-0.347-0.103-0.348-0.232 0-0.133 0.151-0.241 0.341-0.245s0.347 0.103 0.347 0.233zM11.924 26.308c0.023 0.128-0.109 0.261-0.299 0.296-0.185 0.035-0.357-0.045-0.381-0.173-0.023-0.132 0.112-0.264 0.297-0.299 0.188-0.033 0.359 0.044 0.383 0.176z"></path>
</symbol>
<symbol id="icon-home" viewBox="0 0 32 32">
<path d="M16 18.667c-2.209 0-4 1.791-4 4v0 9.368h8v-9.368c0-2.209-1.791-4-4-4v0z"></path>
<path d="M17.784 1.111c-0.47-0.425-1.097-0.685-1.784-0.685s-1.314 0.26-1.786 0.687l0.002-0.002-14.216 12.795v13.867c0 2.356 1.91 4.267 4.267 4.267v0h5.067v-9.372c0-3.682 2.985-6.667 6.667-6.667s6.667 2.985 6.667 6.667v0 9.368h5.067c2.356 0 4.267-1.91 4.267-4.267v0-13.867z"></path>
</symbol>
<symbol id="icon-burger" viewBox="0 0 32 32">
<path d="M30 14h-28c-1.105 0-2 0.895-2 2s0.895 2 2 2h28c1.105 0 2-0.895 2-2s-0.895-2-2-2zM2 8.667h28c1.105 0 2-0.895 2-2s-0.895-2-2-2h-28c-1.105 0-2 0.895-2 2s0.895 2 2 2zM30 23.333h-28c-1.105 0-2 0.895-2 2s0.895 2 2 2h28c1.105 0 2-0.895 2-2s-0.895-2-2-2z"></path>
</symbol>
<symbol id="icon-telegram" viewBox="0 0 28 32">
<path d="M27.919 6.162l-4.225 19.925c-0.319 1.406-1.15 1.756-2.331 1.094l-6.438-4.744-3.106 2.988c-0.344 0.344-0.631 0.631-1.294 0.631l0.463-6.556 11.931-10.781c0.519-0.463-0.113-0.719-0.806-0.256l-14.75 9.287-6.35-1.988c-1.381-0.431-1.406-1.381 0.288-2.044l24.837-9.569c1.15-0.431 2.156 0.256 1.781 2.013z"></path>
</symbol>
<symbol id="icon-logo" viewBox="0 0 127 32">
<path fill="#fff" style="fill: var(--color1, #fff)" d="M31.36 16.32c0 8.66-6.877 15.68-15.36 15.68s-15.36-7.020-15.36-15.68c0-8.66 6.877-15.68 15.36-15.68s15.36 7.020 15.36 15.68z"></path>
<path fill="#d41443" style="fill: var(--color2, #d41443)" d="M11.849 0.561c-7.405 2.243-11.849 8.074-11.849 15.442 0 6.022 3.091 11.277 8.179 13.904 2.64 1.345 3.027 0.384 0.579-1.474-1.738-1.409-2.061-2.050-2.061-4.421 0-1.666-0.386-3.011-0.966-3.524-1.158-0.961-1.288-3.46-0.128-4.357 0.45-0.384 0.901-1.666 0.965-2.819 0.323-4.228 4.895-8.201 9.467-8.201s9.144 3.972 9.466 8.201c0.064 1.153 0.515 2.435 0.966 2.819 1.158 0.897 1.030 3.396-0.129 4.357-0.579 0.513-0.966 1.858-0.966 3.524 0 2.371-0.321 3.012-2.060 4.421-2.705 2.115-1.932 2.883 1.094 1.025 4.251-2.627 7.406-8.33 7.406-13.391 0-10.124-10.561-18.325-19.964-15.506z"></path>
<path fill="#d41443" style="fill: var(--color2, #d41443)" d="M12.687 7.994c-1.16 0.513-2.125 1.154-2.125 1.538 0 0.705 3.478 1.987 5.474 1.987s5.474-1.281 5.474-1.987c0-0.768-3.993-2.499-5.603-2.499-0.644 0.064-2.125 0.448-3.22 0.961zM45.851 11.326c-0.966 0.256-1.158 1.089-1.158 5.702v5.382h4.572l-0.193-5.574c-0.193-5.83-0.451-6.28-3.22-5.51zM53.386 11.646c-2.125 1.154-2.898 2.563-2.898 5.318 0 3.78 2.061 5.574 5.86 5.318 2.576-0.192 2.833-0.385 3.027-1.987s0.064-1.73-1.932-1.602c-2.061 0.192-2.125 0.064-2.125-2.051s0.129-2.243 1.997-2.050c1.545 0.128 2.125-0.128 2.382-1.089 0.129-0.641 0-1.538-0.387-1.923-0.901-0.897-4.25-0.897-5.924 0.064zM61.050 11.71c-0.194 0.513-0.258 3.012-0.129 5.638l0.193 4.742h4.186c3.864 0 4.186-0.128 4.379-1.474 0.193-1.217-0.064-1.409-2.060-1.409-1.288 0-2.319-0.32-2.319-0.641 0-0.385 0.902-0.641 1.932-0.641 1.481 0 1.932-0.256 1.932-1.281s-0.451-1.281-1.932-1.281c-1.030 0-1.932-0.32-1.932-0.641 0-0.385 0.837-0.641 1.868-0.641 1.804 0 3.027-1.409 2.254-2.627-0.58-0.961-7.985-0.705-8.371 0.256zM73.993 11.518c-2.125 0.833-2.962 2.307-3.027 4.998-0.065 4.613 1.803 6.215 6.633 5.766 1.868-0.128 2.189-0.448 2.189-1.794 0-1.409-0.257-1.602-2.061-1.409-1.546 0.128-2.125-0.064-2.447-1.089-0.58-1.987 0.644-3.588 2.705-3.588 1.224 0 1.868-0.384 1.996-1.217 0.451-2.051-2.833-3.011-5.989-1.666zM81.914 11.262c-0.323 0.256-0.515 2.883-0.515 5.83v5.382l2.060-0.192c1.61-0.128 2.19-0.577 2.512-1.795l0.386-1.602 0.515 1.73c0.387 1.474 0.837 1.795 2.512 1.795 2.769 0 3.091-0.449 1.932-2.691-0.708-1.41-0.837-2.115-0.322-2.627 0.837-0.833 0.902-3.652 0.129-4.87-0.644-1.025-8.371-1.858-9.208-0.961zM87.194 14.722c0 0.705-0.257 1.281-0.644 1.281-0.322 0-0.644-0.576-0.644-1.281s0.322-1.282 0.644-1.282c0.387 0 0.644 0.577 0.644 1.282zM93.441 11.326c-0.258 0.192-0.451 2.819-0.451 5.766v5.318h4.186c4.057 0 4.186-0.064 4.186-1.602 0-1.346-0.322-1.602-1.932-1.602-1.030 0-1.932-0.32-1.932-0.641 0-0.385 0.708-0.641 1.61-0.641 1.159 0 1.61-0.321 1.61-1.282s-0.451-1.281-1.61-1.281c-0.902 0-1.61-0.32-1.61-0.641 0-0.384 0.902-0.641 1.932-0.641 1.61 0 1.932-0.256 1.932-1.602 0-1.538-0.193-1.602-3.735-1.602-2.061 0-3.992 0.192-4.186 0.448zM106.45 11.262c-1.16 0.32-4.122 8.842-3.542 10.252 0.515 1.281 3.413 1.153 4.186-0.192 0.579-1.089 0.644-1.089 1.803 0 1.482 1.281 4.701 1.474 4.701 0.256 0-0.384-0.644-2.947-1.482-5.574-1.288-4.228-1.674-4.805-3.027-4.933-0.902 0-2.061 0.064-2.64 0.192zM108.253 17.092c-0.193 0.641-0.322 0.256-0.322-0.769 0-1.089 0.129-1.538 0.322-1.153 0.129 0.448 0.129 1.345 0 1.922zM115.723 11.326c-0.58 0.192-0.837 1.986-0.837 5.702v5.382h1.868c1.61 0 1.932-0.321 2.189-1.795 0.257-1.666 0.257-1.666 0.772-0.32 0.258 0.833 0.902 1.474 1.352 1.474 0.515 0 1.224-0.641 1.546-1.474 0.515-1.346 0.58-1.346 0.58 0.384 0.065 1.602 0.257 1.795 2.061 1.602l1.996-0.192 0.065-5.318c0.129-4.933 0.064-5.318-1.288-5.638-2.061-0.512-3.799 0.705-4.379 3.076l-0.451 2.115-0.708-2.243c-0.902-3.012-2.254-3.78-4.765-2.755zM9.016 11.967c-0.193 0.256-0.387 1.089-0.387 1.922 0 1.474 0.064 1.474 7.406 1.474 7.341 0 7.405 0 7.405-1.474 0-2.179-0.579-2.435-2.64-1.409-2.319 1.217-7.213 1.217-9.531 0-1.030-0.513-1.997-0.705-2.254-0.513zM7.148 17.669c-1.030 1.089 0.708 1.538 5.731 1.538h5.409v2.243c0 1.217 0.322 2.243 0.644 2.243 0.386 0 0.644-0.961 0.644-2.179 0-2.115 0.129-2.243 2.576-2.435 1.416-0.128 2.576-0.512 2.576-0.832 0-0.705-16.872-1.282-17.581-0.577z"></path>
<path fill="#d41443" style="fill: var(--color2, #d41443)" d="M8.629 23.308c0 3.524 1.224 4.229 7.406 4.229s7.405-0.705 7.405-4.229c0-1.538-0.322-2.179-0.966-2.179-0.579 0-0.965 0.577-0.965 1.538 0 3.588-4.895 3.908-5.603 0.384-0.322-1.858-0.515-1.922-3.799-1.922h-3.478v2.179zM12.622 30.548c0.387 2.051 6.955 1.859 6.955-0.128 0-0.705-0.837-0.961-3.606-0.961-3.027 0-3.542 0.192-3.348 1.089z"></path>
</symbol>
<symbol id="icon-ellipse" viewBox="0 0 32 32">
<path fill="#c7133e" style="fill: var(--color1, #c7133e)" d="M32 16c0 8.837-7.163 16-16 16s-16-7.163-16-16c0-8.837 7.163-16 16-16s16 7.163 16 16z"></path>
</symbol>
<symbol id="icon-home-1" viewBox="0 0 35 32">
<path fill="#d31342" style="fill: var(--color1, #d31342)" d="M32.64 15.4c0.256-0.274 0.413-0.644 0.413-1.050 0-0.47-0.21-0.89-0.541-1.173l-0.002-0.002-14.773-12.749c-0.319-0.265-0.733-0.425-1.184-0.425-0.466 0-0.892 0.171-1.218 0.454l0.002-0.002-14.821 13.403c-0.316 0.282-0.515 0.69-0.515 1.145 0 0.42 0.169 0.8 0.443 1.077l-0-0 0.373 0.381c0.613 0.635 1.611 0.709 2.224 0.168l1.107-0.979v14.328c0.006 0.879 0.72 1.589 1.6 1.589 0.005 0 0.009-0 0.014-0h5.775c0.004 0 0.009 0 0.013 0 0.88 0 1.594-0.71 1.6-1.589v-10.025h7.371v10.024c-0.013 0.88 0.624 1.589 1.515 1.589h6.123c0.003 0 0.007 0 0.011 0 0.88 0 1.594-0.71 1.6-1.589v-14.126l0.685 0.592c0.376 0.325 1.168 0.064 1.765-0.587l0.421-0.453z"></path>
</symbol>
</defs>
</svg>
