<svg aria-hidden="true" style="position: absolute; width: 0; height: 0; overflow: hidden;" version="1.1" xmlns="http://www.w3.org/2000/svg" xmlns:xlink="http://www.w3.org/1999/xlink">
<defs>
<symbol id="icon-right" viewBox="0 0 32 32">
<path d="M8.105 30c0.001-0.552 0.225-1.052 0.587-1.413l10.229-10.229c0.603-0.603 0.977-1.437 0.977-2.357s-0.373-1.754-0.977-2.357l-10.216-10.223c-0.347-0.359-0.561-0.849-0.561-1.389 0-1.105 0.895-2 2-2 0.54 0 1.030 0.214 1.39 0.562l-0.001-0.001 10.216 10.215c1.325 1.328 2.145 3.161 2.145 5.186s-0.82 3.858-2.145 5.186l-10.229 10.229c-0.362 0.362-0.862 0.586-1.415 0.586-1.103 0-1.997-0.892-2-1.994v-0z"></path>
</symbol>
<symbol id="icon-arrow" viewBox="0 0 32 32">
<path d="M22.748 12.7l-4.781-4.781c-0.362-0.362-0.862-0.585-1.414-0.585-1.105 0-2 0.896-2 2 0 0.553 0.224 1.053 0.586 1.415l3.252 3.252h-11.724c-1.105 0-2 0.895-2 2s0.895 2 2 2v0h11.724l-3.252 3.252c-0.362 0.362-0.586 0.862-0.586 1.415 0 1.105 0.896 2 2 2 0.552 0 1.052-0.224 1.414-0.585l4.781-4.781c0.843-0.845 1.364-2.012 1.364-3.3s-0.521-2.455-1.364-3.3l0 0z"></path>
</symbol>
<symbol id="icon-cross" viewBox="0 0 32 32">
<path d="M18.828 16l12.586-12.585c0.781-0.781 0.781-2.048 0-2.829s-2.048-0.781-2.829 0l-12.585 12.586-12.585-12.586c-0.781-0.781-2.048-0.781-2.829 0s-0.781 2.048 0 2.829l12.586 12.585-12.586 12.585c-0.781 0.781-0.781 2.048 0 2.829s2.048 0.781 2.829 0l12.585-12.586 12.585 12.586c0.781 0.781 2.048 0.781 2.829 0s0.781-2.048 0-2.829l-12.586-12.585z"></path>
</symbol>
<symbol id="icon-facebook" viewBox="0 0 32 32">
<path d="M18.448 31.755v-14.351h4.825l0.742-5.619h-5.567v-3.578c0-1.622 0.453-2.728 2.78-2.728h2.947v-5.010c-1.246-0.142-2.691-0.223-4.154-0.223-0.058 0-0.117 0-0.175 0l0.009-0c-4.275 0-7.204 2.598-7.204 7.404v4.134h-4.825v5.619h4.825v14.352h5.797z"></path>
</symbol>
<symbol id="icon-github" viewBox="0 0 32 32">
<path d="M16 0.395c-8.836 0-16 7.163-16 16 0 7.069 4.584 13.067 10.941 15.183 0.8 0.148 1.093-0.347 1.093-0.769 0-0.381-0.015-1.641-0.021-2.979-4.451 0.968-5.391-1.888-5.391-1.888-0.728-1.849-1.776-2.341-1.776-2.341-1.452-0.993 0.109-0.972 0.109-0.972 1.607 0.113 2.452 1.649 2.452 1.649 1.427 2.445 3.743 1.739 4.656 1.329 0.144-1.035 0.559-1.74 1.016-2.14-3.553-0.404-7.289-1.776-7.289-7.907 0-1.747 0.625-3.175 1.649-4.295-0.167-0.404-0.715-2.031 0.155-4.235 0 0 1.344-0.429 4.401 1.64 1.2-0.34 2.579-0.536 4.003-0.539h0.001c1.36 0.007 2.729 0.184 4.008 0.539 3.053-2.071 4.396-1.64 4.396-1.64 0.871 2.204 0.323 3.831 0.157 4.235 1.025 1.12 1.647 2.548 1.647 4.295 0 6.145-3.743 7.499-7.305 7.895 0.573 0.496 1.085 1.471 1.085 2.963 0 2.141-0.019 3.864-0.019 4.391 0 0.425 0.288 0.925 1.099 0.768 6.355-2.119 10.933-8.113 10.933-15.18-0.001-8.837-7.165-16.001-16.001-16.001z"></path>
<path d="M6.060 23.368c-0.035 0.080-0.16 0.104-0.275 0.049-0.116-0.052-0.181-0.161-0.144-0.24 0.035-0.081 0.16-0.104 0.276-0.049 0.116 0.051 0.183 0.16 0.143 0.24zM6.708 24.091c-0.076 0.071-0.225 0.037-0.327-0.073-0.105-0.112-0.124-0.261-0.047-0.332 0.079-0.071 0.223-0.037 0.328 0.075 0.105 0.111 0.125 0.259 0.045 0.331zM7.339 25.012c-0.099 0.068-0.259 0.004-0.357-0.137-0.099-0.143-0.099-0.313 0.003-0.381 0.099-0.068 0.257-0.007 0.357 0.135 0.097 0.144 0.097 0.315-0.003 0.384zM8.203 25.903c-0.088 0.097-0.275 0.071-0.411-0.061-0.14-0.129-0.179-0.312-0.091-0.409 0.089-0.097 0.277-0.069 0.415 0.061 0.139 0.129 0.18 0.313 0.087 0.409zM9.396 26.419c-0.039 0.125-0.219 0.183-0.4 0.129-0.181-0.055-0.3-0.201-0.263-0.328s0.219-0.185 0.401-0.128c0.18 0.053 0.299 0.2 0.261 0.327zM10.705 26.515c0.004 0.132-0.149 0.241-0.34 0.244-0.191 0.004-0.347-0.103-0.348-0.232 0-0.133 0.151-0.241 0.341-0.245s0.347 0.103 0.347 0.233zM11.924 26.308c0.023 0.128-0.109 0.261-0.299 0.296-0.185 0.035-0.357-0.045-0.381-0.173-0.023-0.132 0.112-0.264 0.297-0.299 0.188-0.033 0.359 0.044 0.383 0.176z"></path>
</symbol>
<symbol id="icon-home" viewBox="0 0 32 32">
<path d="M16 18.667c-2.209 0-4 1.791-4 4v0 9.368h8v-9.368c0-2.209-1.791-4-4-4v0z"></path>
<path d="M17.784 1.111c-0.47-0.425-1.097-0.685-1.784-0.685s-1.314 0.26-1.786 0.687l0.002-0.002-14.216 12.795v13.867c0 2.356 1.91 4.267 4.267 4.267v0h5.067v-9.372c0-3.682 2.985-6.667 6.667-6.667s6.667 2.985 6.667 6.667v0 9.368h5.067c2.356 0 4.267-1.91 4.267-4.267v0-13.867z"></path>
</symbol>
<symbol id="icon-burger" viewBox="0 0 32 32">
<path d="M30 14h-28c-1.105 0-2 0.895-2 2s0.895 2 2 2h28c1.105 0 2-0.895 2-2s-0.895-2-2-2zM2 8.667h28c1.105 0 2-0.895 2-2s-0.895-2-2-2h-28c-1.105 0-2 0.895-2 2s0.895 2 2 2zM30 23.333h-28c-1.105 0-2 0.895-2 2s0.895 2 2 2h28c1.105 0 2-0.895 2-2s-0.895-2-2-2z"></path>
</symbol>
<symbol id="icon-telegram" viewBox="0 0 28 32">
<path d="M27.919 6.162l-4.225 19.925c-0.319 1.406-1.15 1.756-2.331 1.094l-6.438-4.744-3.106 2.988c-0.344 0.344-0.631 0.631-1.294 0.631l0.463-6.556 11.931-10.781c0.519-0.463-0.113-0.719-0.806-0.256l-14.75 9.287-6.35-1.988c-1.381-0.431-1.406-1.381 0.288-2.044l24.837-9.569c1.15-0.431 2.156 0.256 1.781 2.013z"></path>
</symbol>
</defs>
</svg>
