<svg aria-hidden="true" style="position: absolute; width: 0; height: 0; overflow: hidden;" version="1.1" xmlns="http://www.w3.org/2000/svg" xmlns:xlink="http://www.w3.org/1999/xlink">
<defs>
<symbol id="icon-ukraine-ice-cream" viewBox="0 0 32 32">
<path fill="#31c0d8" style="fill: var(--color1, #31c0d8)" d="M10.775 9.469c-1.084 0-1.959-0.875-1.959-1.959v-0.653c0-1.084 0.875-1.959 1.959-1.959h1.959c-3.918 0-2.612-4.245-2.612-4.245 0.881 0.653 2.612 0.98 2.612 0.98h6.531c0.901 0 1.633 0.732 1.633 1.633s-0.732 1.633-1.633 1.633h1.959c1.084 0 1.959 0.875 1.959 1.959v0.653c0 1.084-0.875 1.959-1.959 1.959h1.633c1.084 0 1.959 0.875 1.959 1.959v0.653c0 1.084-0.875 1.959-1.959 1.959h-13.714c-1.084 0-1.959-0.875-1.959-1.959v-0.653c0-1.084 0.875-1.959 1.959-1.959h1.633z"></path>
<path fill="#ffd248" style="fill: var(--color2, #ffd248)" d="M11.102 19.265h-0.653c-0.718 0-1.306-0.588-1.306-1.306v-3.918h13.714v3.918c0 0.718-0.588 1.306-1.306 1.306h-0.653l-1.959 12.082h-5.878l-1.959-12.082z"></path>
<path fill="#231f20" style="fill: var(--color3, #231f20)" d="M23.446 8.883c0.245-0.389 0.391-0.863 0.391-1.37 0-0.001 0-0.002 0-0.003v0-0.653c0-1.405-1.115-2.555-2.507-2.61 0.14-0.286 0.222-0.623 0.222-0.979 0-0.001 0-0.002 0-0.003v0c0-1.26-1.025-2.286-2.286-2.286h-6.467c-0.487-0.099-1.691-0.41-2.287-0.851-0.107-0.080-0.242-0.128-0.389-0.128-0.292 0-0.54 0.192-0.623 0.456l-0.001 0.005c-0.007 0.024-0.181 0.593-0.227 1.33-0.064 1.029 0.15 1.909 0.621 2.546 0.013 0.017 0.026 0.033 0.039 0.049-1.027 0.352-1.768 1.326-1.768 2.471v0.653c0 0.001 0 0.002 0 0.003 0 0.508 0.146 0.982 0.398 1.382l-0.006-0.011c-1.158 0.268-2.024 1.307-2.024 2.545v0.653c0 1.215 0.834 2.239 1.959 2.53v3.348c0 1.080 0.879 1.959 1.959 1.959h0.097l1.87 11.533c0.052 0.313 0.321 0.549 0.645 0.549 0 0 0 0 0 0h5.878c0.324-0 0.592-0.236 0.644-0.545l0.001-0.004 1.87-11.533h0.097c1.080 0 1.959-0.879 1.959-1.959v-3.348c1.125-0.291 1.959-1.315 1.959-2.53v-0.653c-0-1.238-0.866-2.278-2.023-2.545zM21.551 18.612h-0.653c-0.324 0-0.592 0.236-0.644 0.545l-0.001 0.004-1.87 11.533h-4.766l-1.747-10.776h5.437v-1.306h-6.857c-0.36 0-0.653-0.293-0.653-0.653v-3.265h12.408v3.265c-0 0.36-0.293 0.653-0.653 0.653zM24.163 12.082c0 0.72-0.586 1.306-1.306 1.306h-13.714c-0.72 0-1.306-0.586-1.306-1.306v-0.653c0-0.72 0.586-1.306 1.306-1.306h8.163v-1.306h-6.531c-0.72 0-1.306-0.586-1.306-1.306v-0.653c0-0.72 0.586-1.306 1.306-1.306h5.551v-1.306h-3.592c-0.852 0-1.454-0.229-1.79-0.682-0.381-0.514-0.415-1.287-0.352-1.903 0.895 0.394 1.878 0.588 2.021 0.615 0.040 0.008 0.080 0.011 0.121 0.011h6.531c0.54 0 0.98 0.439 0.98 0.98s-0.439 0.98-0.98 0.98c-0.361 0-0.653 0.292-0.653 0.653s0.292 0.653 0.653 0.653h1.959c0.72 0 1.306 0.586 1.306 1.306v0.653c0 0.72-0.586 1.306-1.306 1.306-0.361 0-0.653 0.292-0.653 0.653s0.292 0.653 0.653 0.653h1.633c0.72 0 1.306 0.586 1.306 1.306v0.653z"></path>
<path fill="#231f20" style="fill: var(--color3, #231f20)" d="M11.755 16h1.959v1.306h-1.959zM15.020 16h1.959v1.306h-1.959zM18.286 16h1.959v1.306h-1.959z"></path>
</symbol>
</defs>
</svg>
